<svg width="133" height="24" viewBox="0 0 133 24" fill="none" xmlns="http://www.w3.org/2000/svg">
    <path d="M0 6.6074L3.79216 8.7918L11.377 4.42301L18.9622 8.7918L22.7544 6.6074L11.377 0.0546875L0 6.6074Z"
          fill="#0B254E"/>
    <path d="M11.3778 6.97144L8.9512 8.36948L5.47656 10.3704V14.7392L9.08622 12.6593L9.40794 12.4745V19.3337H13.3482V12.4745L13.6699 12.6593L17.2795 14.7392V10.3704L13.8049 8.36948L11.3778 6.97144Z"
          fill="#0B254E"/>
    <path d="M27.8481 2.50244V5.77183H32.6906V19.3338H36.1373V5.77183H41.0083V2.50244H27.8477H27.8481Z" fill="#0B254E"/>
    <path d="M45.9496 0.564329C45.5441 0.18811 45.0301 0 44.4076 0C43.7851 0 43.2855 0.192754 42.8749 0.578727C42.4647 0.964236 42.2617 1.4445 42.2617 2.01811C42.2617 2.59173 42.4642 3.09986 42.8749 3.48583C43.2851 3.87134 43.7944 4.06456 44.4076 4.06456C45.0208 4.06456 45.5441 3.87181 45.9496 3.48583C46.3505 3.10033 46.5483 2.61542 46.5483 2.01811C46.5483 1.42081 46.3505 0.941013 45.9496 0.564793V0.564329Z"
          fill="#0B254E"/>
    <path d="M46.1147 6.10596H42.668V19.334H46.1147V6.10596Z" fill="#0B254E"/>
    <path d="M59.9026 7.75707C58.7475 6.46353 57.3093 5.81885 55.588 5.81885C53.8668 5.81885 52.4239 6.53366 51.3959 7.95912V6.10589H47.9492V24L51.3959 22.6544V17.5504C52.4379 18.9336 53.8384 19.6201 55.588 19.6201C57.3377 19.6201 58.7661 18.9754 59.9165 17.6865C61.0623 16.3929 61.6378 14.7371 61.6378 12.719C61.6378 10.7009 61.0577 9.04504 59.9026 7.75614V7.75707ZM57.191 15.34C56.5546 16.0125 55.7575 16.3516 54.7956 16.3516C53.8337 16.3516 52.9989 16.013 52.3578 15.34C51.7167 14.6674 51.3959 13.7924 51.3959 12.7199C51.3959 11.6475 51.7167 10.7724 52.3578 10.0999C52.9989 9.4273 53.8151 9.0887 54.7956 9.0887C55.7761 9.0887 56.5779 9.4273 57.205 10.0999C57.8321 10.7724 58.1431 11.6475 58.1431 12.7199C58.1431 13.7924 57.827 14.6674 57.1906 15.34H57.191Z"
          fill="#0B254E"/>
    <path d="M73.776 2.50244V9.08814H66.2787V2.50244H62.832V19.3334H66.2787V12.3571H73.776V19.3334H77.2227V2.50244H73.776Z"
          fill="#0B254E"/>
    <path d="M88.5116 6.10589V7.95912C87.4836 6.53366 86.0877 5.81885 84.3195 5.81885C82.5512 5.81885 81.1647 6.46353 80.0142 7.75707C78.8684 9.04597 78.293 10.7018 78.293 12.7199C78.293 14.738 78.8633 16.3939 80.0044 17.6874C81.1456 18.9763 82.5884 19.621 84.3427 19.621C86.0971 19.621 87.4738 18.934 88.4874 17.5513V19.3339H91.9341L91.9578 6.10589H88.5111H88.5116ZM87.5497 15.34C86.9034 16.0125 86.0929 16.3516 85.1165 16.3516C84.1402 16.3516 83.3483 16.013 82.7165 15.34C82.08 14.6674 81.7639 13.7924 81.7639 12.7199C81.7639 11.6475 82.0749 10.7724 82.702 10.0999C83.3292 9.4273 84.1356 9.0887 85.1161 9.0887C86.0966 9.0887 86.903 9.4273 87.5492 10.0999C88.1903 10.7724 88.5111 11.6475 88.5111 12.7199C88.5111 13.7924 88.1903 14.6674 87.5492 15.34H87.5497Z"
          fill="#0B254E"/>
    <path d="M102.477 6.10596L99.5163 15.6034L96.5738 6.10596H92.9102L97.4654 19.334H101.587L106.142 6.10596H102.478H102.477Z"
          fill="#0B254E"/>
    <path d="M117.734 8.0534C116.47 6.56711 114.758 5.81885 112.589 5.81885C110.581 5.81885 108.926 6.47746 107.624 7.79005C106.323 9.10728 105.672 10.7585 105.672 12.7436C105.672 14.7287 106.323 16.3753 107.624 17.6735C108.925 18.9717 110.604 19.621 112.66 19.621C114.169 19.621 115.513 19.2448 116.687 18.4919C117.857 17.7394 118.677 16.6149 119.144 15.1235H115.574C115.353 15.6363 114.976 16.0409 114.443 16.3372C113.915 16.6335 113.311 16.784 112.637 16.784C111.703 16.784 110.925 16.5114 110.298 15.9656C109.671 15.4199 109.303 14.6345 109.19 13.6089H119.361C119.536 11.398 118.993 9.54481 117.734 8.0534H117.734ZM109.359 11.0827C109.581 10.3488 109.968 9.76079 110.514 9.31862C111.061 8.87644 111.745 8.65536 112.566 8.65536C113.387 8.65536 114.042 8.87644 114.589 9.31862C115.136 9.76079 115.504 10.3488 115.697 11.0827H109.359Z"
          fill="#0B254E"/>
    <path d="M131.722 7.21597C130.869 6.28471 129.699 5.81885 128.205 5.81885C126.45 5.81885 125.078 6.51509 124.083 7.91221V6.10589H120.637V19.3339H124.083V12.386C124.083 10.189 125.078 9.08824 127.073 9.08824C127.955 9.08824 128.591 9.31397 128.973 9.76079C129.36 10.2123 129.554 10.8853 129.554 11.7835V19.3335H133V11.0353C133 9.41708 132.576 8.14212 131.722 7.2155V7.21597Z"
          fill="#0B254E"/>
    <path d="M0 6.6074L3.79216 8.7918L11.377 4.42301L18.9622 8.7918L22.7544 6.6074L11.377 0.0546875L0 6.6074Z"
          fill="#0B254E"/>
    <path d="M11.3778 6.97144L8.9512 8.36948L5.47656 10.3704V14.7392L9.08622 12.6593L9.40794 12.4745V19.3337H13.3482V12.4745L13.6699 12.6593L17.2795 14.7392V10.3704L13.8049 8.36948L11.3778 6.97144Z"
          fill="#0B254E"/>
    <path d="M27.8481 2.50244V5.77183H32.6906V19.3338H36.1373V5.77183H41.0083V2.50244H27.8477H27.8481Z" fill="#0B254E"/>
    <path d="M45.9496 0.564329C45.5441 0.18811 45.0301 0 44.4076 0C43.7851 0 43.2855 0.192754 42.8749 0.578727C42.4647 0.964236 42.2617 1.4445 42.2617 2.01811C42.2617 2.59173 42.4642 3.09986 42.8749 3.48583C43.2851 3.87134 43.7944 4.06456 44.4076 4.06456C45.0208 4.06456 45.5441 3.87181 45.9496 3.48583C46.3505 3.10033 46.5483 2.61542 46.5483 2.01811C46.5483 1.42081 46.3505 0.941013 45.9496 0.564793V0.564329Z"
          fill="#0B254E"/>
    <path d="M46.1147 6.10596H42.668V19.334H46.1147V6.10596Z" fill="#0B254E"/>
    <path d="M59.9026 7.75707C58.7475 6.46353 57.3093 5.81885 55.588 5.81885C53.8668 5.81885 52.4239 6.53366 51.3959 7.95912V6.10589H47.9492V24L51.3959 22.6544V17.5504C52.4379 18.9336 53.8384 19.6201 55.588 19.6201C57.3377 19.6201 58.7661 18.9754 59.9165 17.6865C61.0623 16.3929 61.6378 14.7371 61.6378 12.719C61.6378 10.7009 61.0577 9.04504 59.9026 7.75614V7.75707ZM57.191 15.34C56.5546 16.0125 55.7575 16.3516 54.7956 16.3516C53.8337 16.3516 52.9989 16.013 52.3578 15.34C51.7167 14.6674 51.3959 13.7924 51.3959 12.7199C51.3959 11.6475 51.7167 10.7724 52.3578 10.0999C52.9989 9.4273 53.8151 9.0887 54.7956 9.0887C55.7761 9.0887 56.5779 9.4273 57.205 10.0999C57.8321 10.7724 58.1431 11.6475 58.1431 12.7199C58.1431 13.7924 57.827 14.6674 57.1906 15.34H57.191Z"
          fill="#0B254E"/>
    <path d="M73.776 2.50244V9.08814H66.2787V2.50244H62.832V19.3334H66.2787V12.3571H73.776V19.3334H77.2227V2.50244H73.776Z"
          fill="#0B254E"/>
    <path d="M88.5116 6.10589V7.95912C87.4836 6.53366 86.0877 5.81885 84.3195 5.81885C82.5512 5.81885 81.1647 6.46353 80.0142 7.75707C78.8684 9.04597 78.293 10.7018 78.293 12.7199C78.293 14.738 78.8633 16.3939 80.0044 17.6874C81.1456 18.9763 82.5884 19.621 84.3427 19.621C86.0971 19.621 87.4738 18.934 88.4874 17.5513V19.3339H91.9341L91.9578 6.10589H88.5111H88.5116ZM87.5497 15.34C86.9034 16.0125 86.0929 16.3516 85.1165 16.3516C84.1402 16.3516 83.3483 16.013 82.7165 15.34C82.08 14.6674 81.7639 13.7924 81.7639 12.7199C81.7639 11.6475 82.0749 10.7724 82.702 10.0999C83.3292 9.4273 84.1356 9.0887 85.1161 9.0887C86.0966 9.0887 86.903 9.4273 87.5492 10.0999C88.1903 10.7724 88.5111 11.6475 88.5111 12.7199C88.5111 13.7924 88.1903 14.6674 87.5492 15.34H87.5497Z"
          fill="#0B254E"/>
    <path d="M102.477 6.10596L99.5163 15.6034L96.5738 6.10596H92.9102L97.4654 19.334H101.587L106.142 6.10596H102.478H102.477Z"
          fill="#0B254E"/>
    <path d="M117.734 8.0534C116.47 6.56711 114.758 5.81885 112.589 5.81885C110.581 5.81885 108.926 6.47746 107.624 7.79005C106.323 9.10728 105.672 10.7585 105.672 12.7436C105.672 14.7287 106.323 16.3753 107.624 17.6735C108.925 18.9717 110.604 19.621 112.66 19.621C114.169 19.621 115.513 19.2448 116.687 18.4919C117.857 17.7394 118.677 16.6149 119.144 15.1235H115.574C115.353 15.6363 114.976 16.0409 114.443 16.3372C113.915 16.6335 113.311 16.784 112.637 16.784C111.703 16.784 110.925 16.5114 110.298 15.9656C109.671 15.4199 109.303 14.6345 109.19 13.6089H119.361C119.536 11.398 118.993 9.54481 117.734 8.0534H117.734ZM109.359 11.0827C109.581 10.3488 109.968 9.76079 110.514 9.31862C111.061 8.87644 111.745 8.65536 112.566 8.65536C113.387 8.65536 114.042 8.87644 114.589 9.31862C115.136 9.76079 115.504 10.3488 115.697 11.0827H109.359Z"
          fill="#0B254E"/>
    <path d="M131.722 7.21597C130.869 6.28471 129.699 5.81885 128.205 5.81885C126.45 5.81885 125.078 6.51509 124.083 7.91221V6.10589H120.637V19.3339H124.083V12.386C124.083 10.189 125.078 9.08824 127.073 9.08824C127.955 9.08824 128.591 9.31397 128.973 9.76079C129.36 10.2123 129.554 10.8853 129.554 11.7835V19.3335H133V11.0353C133 9.41708 132.576 8.14212 131.722 7.2155V7.21597Z"
          fill="#0B254E"/>
</svg>
